:version 1.10
:name ASF
:units
  mass 1
  length 1
  angle deg
:documentation
  ASF file generated by Kaydara
:root
  axis xyz
  order  tx ty tz rx ry rz
  position 0 0 0
  orientation 0 0 0
:bonedata
  begin
    id 1
    name RightUpLegDummy
    direction -1 2.30186e-007 8.31532e-007
    length 4.04083
    axis 0 0 0 xyz
  end
  begin
    id 2
    name RightUpLeg
    direction -0.000919234 -0.999985 0.00544864
    length 17.4221
    axis -3.80308 -0.00076134 -0.0523649 xyz
    dof rx ry rz
  end
  begin
    id 3
    name RightLeg
    direction -0.000919271 -0.999984 -0.00555045
    length 17.1239
    axis 4.00314 0.0181274 -0.183583 xyz
    dof rx ry rz
  end
  begin
    id 4
    name RightFoot
    direction -2.57843e-005 -4.04509e-007 1
    length 6.72091
    axis 8.18909e-005 -0.122003 -0.403008 xyz
    dof rx ry rz
  end
  begin
    id 5
    name RightToes
    direction 0.00116825 -0.014069 0.9999
    length 3.85082
    axis 0.000514414 0.540638 -0.356797 xyz
    dof rx ry rz
  end
  begin
    id 6
    name SpineDummy
    direction 0.0168869 0.966876 -0.254689
    length 6.99894
    axis 0 0 0 xyz
  end
  begin
    id 7
    name Spine
    direction -0.0132008 0.999903 0.00446247
    length 11.1999
    axis -0.00148109 0.00725429 0.756411 xyz
    dof rx ry rz
  end
  begin
    id 8
    name Spine1
    direction 0 0 0
    length 0
    axis -0.000934958 0.0245693 1.46543 xyz
    dof rx ry rz
  end
  begin
    id 9
    name HEadDummy
    direction -0.0255732 0.999672 0.00128215
    length 3.43865
    axis -0.000934958 0.0245693 1.46543 xyz
  end
  begin
    id 10
    name HEad
    direction -0.0472656 0.980052 0.19304
    length 5.12695
    axis -0.000934954 0.0245693 1.46543 xyz
    dof rx ry rz
  end
  begin
    id 11
    name LeftShoulder1Dummy
    direction 0.953098 0.301717 -0.023914
    length 3.68488
    axis -0.000934958 0.0245693 1.46543 xyz
  end
  begin
    id 12
    name LeftShoulder1
    direction 0.962466 0.271167 0.0112566
    length 3.13809
    axis -0.000934958 0.0245693 1.46543 xyz
    dof rx ry rz
  end
  begin
    id 13
    name LeftArm
    direction 0.999943 0.00455037 -0.00961766
    length 11.3419
    axis -23.1648 0.685459 1.22814 xyz
    dof rx ry rz
  end
  begin
    id 14
    name LeftForeArm
    direction 0.999332 0.0131969 0.0340885
    length 8.70632
    axis -9.90633 0.618216 0.0826942 xyz
    dof rx ry rz
  end
  begin
    id 15
    name LeftHand
    direction 0.994373 -0.0366703 0.0993905
    length 5.32135
    axis 0.00675269 0.680415 0.445699 xyz
    dof rx ry rz
  end
  begin
    id 16
    name RightShoulderDummy
    direction -0.967298 0.252589 -0.0230903
    length 3.68488
    axis -0.000934958 0.0245693 1.46543 xyz
  end
  begin
    id 17
    name RightShoulder
    direction -0.975062 0.221602 0.0120823
    length 3.13809
    axis 0.216257 0.0246515 1.45863 xyz
    dof rx ry rz
  end
  begin
    id 18
    name RightArm
    direction -0.99886 -0.00851186 -0.0469687
    length 10.3947
    axis -23.196 0.23503 -0.532632 xyz
    dof rx ry rz
  end
  begin
    id 19
    name RightForeArm
    direction -0.99909 0.00114866 0.0426317
    length 8.68355
    axis -9.91764 -0.134943 0.610517 xyz
    dof rx ry rz
  end
  begin
    id 20
    name RightHand
    direction -0.992888 -0.0489538 0.10852
    length 5.28593
    axis -0.00275396 -0.197403 0.246414 xyz
    dof rx ry rz
  end
  begin
    id 21
    name LeftUpLegDummy
    direction 1 -2.30186e-007 -8.31532e-007
    length 4.04083
    axis 0 0 0 xyz
  end
  begin
    id 22
    name LeftUpLeg
    direction -0.000920097 -1 2.79241e-006
    length 17.4221
    axis -3.48782 0.00143434 -0.0532288 xyz
    dof rx ry rz
  end
  begin
    id 23
    name LeftLeg
    direction -0.000920097 -1 2.7912e-006
    length 17.1239
    axis 3.68162 -0.00806512 -0.0529896 xyz
    dof rx ry rz
  end
  begin
    id 24
    name LeftFoot
    direction -2.57845e-005 -3.987e-007 1
    length 6.72091
    axis 3.02372e-005 -0.00147829 -0.214229 xyz
    dof rx ry rz
  end
  begin
    id 25
    name LeftToes
    direction 0.00813577 -0.00488255 0.999955
    length 3.85048
    axis 3.89895e-005 -0.0014783 -0.214229 xyz
    dof rx ry rz
  end
:hierarchy
  begin
    root RightUpLegDummy SpineDummy LeftUpLegDummy
    RightUpLegDummy RightUpLeg
    RightUpLeg RightLeg
    RightLeg RightFoot
    RightFoot RightToes
    SpineDummy Spine
    Spine Spine1
    Spine1 HEadDummy LeftShoulder1Dummy RightShoulderDummy
    HEadDummy HEad
    LeftShoulder1Dummy LeftShoulder1
    LeftShoulder1 LeftArm
    LeftArm LeftForeArm
    LeftForeArm LeftHand
    RightShoulderDummy RightShoulder
    RightShoulder RightArm
    RightArm RightForeArm
    RightForeArm RightHand
    LeftUpLegDummy LeftUpLeg
    LeftUpLeg LeftLeg
    LeftLeg LeftFoot
    LeftFoot LeftToes
  end

:SAMPLES-PER-SECOND 30
:FULLY-SPECIFIED
:DEGREES
111
root  -14.8933 34.3211 -0.906366 -124.714 -1.55078 178.182
RightUpLeg  -69.0463 -6.52599 12.0018
RightLeg  8.30401 3.46681 0.281265
RightFoot  13.0409 -0.0307987 0.793767
RightToes  -15.0445 -0.0568785 -0.136475
Spine  15.0742 0.35159 1.54742
Spine1  29.7718 0.79556 2.61447
HEad  -11.2844 -7.98573 -1.269
LeftShoulder1  -1.94126e-019 -3.10601e-018 -2.51263e-017
LeftArm  -12.7285 8.83219 -82.6117
LeftForeArm  11.8899 -48.6982 -11.7574
LeftHand  -0.292088 -2.05337 4.8431
RightShoulder  -4.96962e-017 0 -2.36833e-017
RightArm  -18.7619 -5.91221 75.7569
RightForeArm  28.4214 49.1903 10.576
RightHand  -0.38256 -2.45517 -14.8615
LeftUpLeg  -68.7119 -5.44245 5.32051
LeftLeg  8.49459 11.1474 0.931404
LeftFoot  16.314 -0.446972 3.28952
LeftToes  -15.483 1.31424e-006 1.14295e-007
112
root  -14.8932 34.2968 -0.837228 -125.416 -1.37965 178.153
RightUpLeg  -68.552 -6.51143 11.6879
RightLeg  8.49375 3.34643 0.282685
RightFoot  13.0204 -0.0301766 0.767638
RightToes  -15.3381 -0.0570231 -0.137386
Spine  15.068 0.377182 1.54748
Spine1  29.7611 0.843325 2.63036
HEad  -11.4215 -7.97496 -1.32374
LeftShoulder1  -1.94126e-019 -3.10601e-018 -2.51263e-017
LeftArm  -12.5912 8.68019 -82.6628
LeftForeArm  11.6942 -48.267 -11.5814
LeftHand  -0.291231 -1.94181 4.7959
RightShoulder  -4.96962e-017 0 -2.36833e-017
RightArm  -18.7324 -5.90004 75.7072
RightForeArm  28.2121 48.7005 10.3889
RightHand  -0.384393 -2.39544 -14.6419
LeftUpLeg  -68.216 -5.45909 5.18855
LeftLeg  8.73865 11.2293 0.985997
LeftFoot  16.1142 -0.443159 3.27735
LeftToes  -15.7177 1.31424e-006 1.14295e-007
113
root  -14.9003 34.283 -0.751768 -125.724 -1.25891 178.137
RightUpLeg  -68.4618 -6.54839 11.6746
RightLeg  8.60624 3.45003 0.298212
RightFoot  13.0653 -0.0330461 0.793805
RightToes  -15.2012 -0.0571992 -0.1386
Spine  14.9567 0.389472 1.54941
Spine1  29.5441 0.857432 2.66452
HEad  -11.6543 -7.94134 -1.42257
LeftShoulder1  -1.94126e-019 -3.10601e-018 -2.51263e-017
LeftArm  -12.5987 8.63993 -82.7578
LeftForeArm  11.5886 -47.8925 -11.4279
LeftHand  -0.294083 -1.91771 4.85527
RightShoulder  -4.96962e-017 0 -2.36833e-017
RightArm  -18.793 -5.9789 75.6995
RightForeArm  28.0312 48.3316 10.2542
RightHand  -0.38238 -2.36273 -14.4089
LeftUpLeg  -68.2007 -5.58711 5.33581
LeftLeg  9.06487 11.5468 1.07931
LeftFoot  15.9868 -0.447234 3.34564
LeftToes  -15.8782 1.31424e-006 1.14295e-007
114
root  -14.9228 34.2651 -0.684692 -126.226 -0.94635 178.057
RightUpLeg  -68.2189 -6.66635 11.582
RightLeg  8.79789 3.6976 0.331967
RightFoot  13.0375 -0.0376038 0.846782
RightToes  -15.2642 -0.0574513 -0.140143
Spine  14.9455 0.376012 1.47839
Spine1  29.5183 0.847887 2.53064
HEad  -11.8738 -7.83406 -1.46234
LeftShoulder1  -1.94126e-019 -3.10601e-018 -2.51263e-017
LeftArm  -12.8146 8.602 -82.8336
LeftForeArm  11.6301 -47.5706 -11.2869
LeftHand  -0.294472 -2.02082 4.80175
RightShoulder  -4.96962e-017 0 -2.36833e-017
RightArm  -18.8997 -5.96745 75.8051
RightForeArm  28.0461 47.8927 10.0777
RightHand  -0.390011 -2.26241 -14.2411
LeftUpLeg  -67.8611 -5.77132 5.4051
LeftLeg  9.2136 12.0149 1.15368
LeftFoot  15.9185 -0.462211 3.46651
LeftToes  -16.187 1.31424e-006 1.14295e-007
115
root  -14.9516 34.2475 -0.611272 -126.641 -0.648392 178
RightUpLeg  -67.9549 -6.6852 11.3684
RightLeg  8.80088 3.86059 0.346746
RightFoot  13.1419 -0.0414553 0.890312
RightToes  -15.7779 -0.0577736 -0.142039
Spine  14.9289 0.364541 1.4112
Spine1  29.4827 0.83563 2.4145
HEad  -11.9846 -7.77444 -1.48121
LeftShoulder1  -1.94126e-019 -3.10601e-018 -2.51263e-017
LeftArm  -12.9543 8.6063 -82.8891
LeftForeArm  11.6211 -47.3702 -11.2029
LeftHand  -0.3046 -2.00796 4.96844
RightShoulder  -4.96962e-017 0 -2.36833e-017
RightArm  -19.029 -6.0482 75.9158
RightForeArm  28.1457 47.5699 9.94395
RightHand  -0.394503 -2.19963 -14.1312
LeftUpLeg  -67.5352 -5.82978 5.30169
LeftLeg  9.21355 12.3089 1.1815
LeftFoot  15.9145 -0.473853 3.55057
LeftToes  -16.4817 1.31424e-006 1.14295e-007
